<svg width="348" height="394" viewBox="0 0 348 394" fill="none" xmlns="http://www.w3.org/2000/svg">
<g clip-path="url(#clip0_3_16)">
<path d="M7.93085 111.042C12.2861 107.966 17.8914 114.745 14.8422 118.966C11.76 123.233 5.02142 122.023 2.70108 117.667C-0.259487 112.108 2.68873 105.496 7.45994 102.269C12.8799 98.6034 19.5224 98.3971 25.7806 98.7406C32.1016 99.0876 38.27 99.5482 44.5672 98.6125C49.8977 97.8066 55.1062 96.2982 60.0652 94.1241C70.261 89.7012 79.2138 82.6975 86.0972 73.7593C89.3092 69.5511 92.3111 64.8214 94.1497 59.7836C95.566 55.9033 96.2369 50.8001 94.2302 47.0019C93.7937 46.1473 93.1784 45.4039 92.429 44.8255C91.6796 44.2471 90.8149 43.8483 89.8977 43.6581C88.9804 43.4678 88.0337 43.4909 87.1261 43.7255C86.2186 43.9602 85.373 44.4006 84.6508 45.0148C81.3065 47.8442 80.4033 53.098 82.9603 56.7589C85.7042 60.6873 90.8818 62.0339 95.3396 61.3186C101.535 60.3246 106.552 55.808 111.295 51.9194L146.421 23.1212C152.214 18.3725 157.947 13.5318 163.813 8.88181C168.584 5.10037 174.406 1.43383 180.62 3.4536C183.125 4.26778 185.649 6.19589 186.275 8.96603C186.509 10.2345 186.404 11.5448 185.97 12.7558C185.536 13.9668 184.79 15.0324 183.812 15.8379C183.366 16.2294 182.845 16.5208 182.284 16.6936C181.723 16.8664 181.133 16.9167 180.552 16.8415C179.97 16.7662 179.411 16.567 178.908 16.2565C178.405 15.946 177.971 15.5309 177.632 15.0377C176.322 13.1517 176.214 10.4628 176.969 8.33168C178.984 2.63635 186.38 2.04049 191.316 2.50369C197.14 3.11309 202.765 5.02506 207.801 8.10667C218.232 14.3628 225.946 24.5399 230.47 35.9807C235.483 48.6572 237.028 62.6845 236.823 76.2928C236.781 79.0683 236.595 82.1384 235.083 84.5315C233.601 86.8753 231.016 87.5847 228.697 86.0173C227.942 85.5068 226.971 84.5124 227.168 83.4635C227.415 82.1467 229.957 82.1366 230.975 82.187C233.761 82.3248 236.394 83.775 238.39 85.7302C243.132 90.3766 243.501 97.4861 242.883 103.808C242.204 110.747 240.267 117.65 241.036 124.675C242.296 136.185 251.442 142.58 260.424 147.871C265.025 150.581 269.725 153.172 273.862 156.619C278.078 160.146 281.769 164.294 284.816 168.93C290.838 178.078 294.388 188.719 295.1 199.755C295.458 205.269 295.036 210.808 293.848 216.197C292.666 221.467 290.805 228.112 285.901 230.943C284.732 231.633 283.386 231.937 282.045 231.812C280.704 231.688 279.433 231.142 278.402 230.248C276.415 228.601 275.444 225.678 277.496 223.621C279.197 221.916 281.919 222.275 283.971 222.968C286.441 223.803 288.364 225.36 290.206 227.199C293.716 230.705 297.825 235.01 303.166 233.89C304.153 233.683 303.735 232.124 302.75 232.331C296.303 233.683 292.416 225.945 287.661 222.966C284.219 220.809 278.339 219.205 275.649 223.412C272.746 227.951 277.414 232.848 281.751 233.433C287.391 234.193 291.3 228.499 293.194 223.799C297.585 212.898 297.722 200.117 295.036 188.767C292.35 177.24 286.545 166.74 278.297 158.493C274.134 154.395 269.361 151.254 264.382 148.33C259.356 145.378 254.118 142.547 249.818 138.496C247.436 136.327 245.541 133.647 244.265 130.644C242.989 127.641 242.362 124.386 242.429 121.107C242.475 113.555 244.827 106.226 244.68 98.6596C244.559 92.386 242.494 86.2599 237.209 82.7278C235.031 81.2021 232.43 80.4524 229.802 80.5928C228.733 80.6836 227.231 80.8695 226.351 81.5607C225.641 82.1173 225.507 83.4202 225.65 84.2625C225.99 86.2632 227.822 87.6526 229.602 88.2095C230.684 88.5686 231.846 88.583 232.936 88.2509C234.026 87.9187 234.993 87.2554 235.713 86.3472C237.425 84.3061 238.019 81.584 238.261 78.9629C238.589 75.4118 238.408 71.764 238.256 68.207C237.64 53.7516 234.874 38.9502 227.599 26.3957C221.415 15.724 211.798 6.77601 200.266 2.8173C194.832 0.951888 188.387 -0.166058 182.78 1.5305C177.955 2.99018 174.259 7.09014 175.055 12.5203C175.73 17.1169 180.342 20.2962 184.406 17.395C185.365 16.7103 186.17 15.8201 186.765 14.785C187.36 13.7499 187.732 12.5944 187.856 11.3973C187.979 10.2002 187.85 8.98973 187.479 7.84857C187.108 6.7074 186.503 5.6624 185.704 4.78493C181.775 0.535896 175.368 0.566475 170.466 2.72586C167.513 4.02626 164.899 5.97461 162.378 7.99866C159.164 10.5787 155.996 13.2205 152.808 15.8342L114.403 47.3203C111.372 49.8054 108.389 52.3813 105.257 54.7303C102.334 56.9223 99.1091 58.9527 95.5109 59.6565C90.4438 60.6476 82.4228 58.0485 83.0373 51.4119C83.2759 48.8346 84.9291 45.9879 87.456 45.2488C89.933 44.5244 92.2715 46.1698 93.1923 48.4992C95.2223 53.6344 92.8383 59.5086 90.4672 64.0167C84.5963 75.1789 75.3354 84.2692 64.4845 90.1842C59.0531 93.1517 53.2316 95.2851 47.2037 96.5169C40.4327 97.8907 33.7887 97.6218 26.9428 97.193C20.3067 96.7774 13.3381 96.8199 7.42328 100.391C2.57325 103.319 -0.662198 108.629 0.115245 114.547C0.790366 119.685 4.78131 123.613 9.92856 123.179C14.2489 122.815 18.5896 119.005 17.0567 114.166C15.7874 110.159 10.8879 106.999 7.14048 109.646C6.31373 110.23 7.09612 111.632 7.93079 111.042H7.93085Z" fill="#3F3D56"/>
<path d="M339.762 227.783H301.825C301.232 227.783 300.664 228.027 300.245 228.46C299.826 228.893 299.59 229.479 299.589 230.091V254.482C299.59 255.094 299.826 255.681 300.245 256.114C300.664 256.547 301.232 256.79 301.825 256.791H339.762C340.355 256.79 340.923 256.547 341.342 256.114C341.762 255.681 341.997 255.094 341.998 254.482V230.091C341.997 229.479 341.762 228.893 341.342 228.46C340.923 228.027 340.355 227.783 339.762 227.783Z" fill="#F2F2F2"/>
<path d="M339.762 227.783H301.825C301.232 227.783 300.664 228.027 300.245 228.46C299.826 228.893 299.59 229.479 299.589 230.091V254.482C299.59 255.094 299.826 255.681 300.245 256.114C300.664 256.547 301.232 256.79 301.825 256.791H339.762C340.355 256.79 340.923 256.547 341.342 256.114C341.762 255.681 341.997 255.094 341.998 254.482V230.091C341.997 229.479 341.762 228.893 341.342 228.46C340.923 228.027 340.355 227.783 339.762 227.783ZM340.496 245.303C340.487 247.786 339.536 250.167 337.847 251.934C336.157 253.701 333.865 254.714 331.46 254.756C327.611 254.808 333.59 254.828 328.948 254.828C318.331 254.828 307.261 254.723 303.131 254.655C302.588 254.644 302.07 254.413 301.689 254.013C301.308 253.613 301.093 253.075 301.091 252.514V230.093C301.091 229.892 301.169 229.699 301.306 229.557C301.444 229.415 301.63 229.335 301.825 229.334H339.761C339.955 229.334 340.142 229.414 340.28 229.556C340.418 229.698 340.495 229.89 340.496 230.091L340.496 245.303Z" fill="#E6E6E6"/>
<path d="M335.092 213.738H306.188C305.932 213.738 305.683 213.82 305.474 213.972C305.265 214.124 305.106 214.34 305.02 214.588L300.556 227.521C300.489 227.714 300.469 227.921 300.496 228.124C300.522 228.327 300.596 228.521 300.71 228.688C300.824 228.856 300.976 228.993 301.152 229.087C301.328 229.182 301.524 229.231 301.722 229.231L340.488 229.302H340.489C340.694 229.302 340.896 229.25 341.077 229.149C341.258 229.049 341.411 228.904 341.524 228.727C341.637 228.55 341.706 228.347 341.724 228.136C341.742 227.925 341.71 227.713 341.629 227.518L341.561 227.548L341.629 227.518L336.232 214.514C336.136 214.283 335.978 214.087 335.775 213.949C335.572 213.811 335.335 213.738 335.092 213.738Z" fill="#E6E6E6"/>
<path d="M341.729 227.799C341.729 227.972 341.695 228.144 341.629 228.303L336.232 238.313C336.136 238.543 335.977 238.739 335.774 238.877C335.572 239.014 335.335 239.088 335.092 239.088H306.188C305.933 239.088 305.683 239.006 305.474 238.854C305.265 238.702 305.106 238.487 305.02 238.238L300.556 228.3C300.502 228.141 300.478 227.973 300.486 227.805C300.494 227.638 300.534 227.473 300.604 227.321C300.674 227.169 300.772 227.033 300.893 226.92C301.014 226.808 301.155 226.721 301.308 226.664C301.441 226.615 301.581 226.59 301.722 226.589L306.457 226.58L308.39 226.577L333.822 226.531L335.756 226.527L340.488 226.518H340.489C340.818 226.518 341.133 226.653 341.366 226.893C341.598 227.133 341.729 227.459 341.729 227.799Z" fill="#E6E6E6"/>
<path d="M304.669 246.079C305.242 246.079 313.113 246.575 313.113 247.167C313.113 247.759 305.242 248.222 304.669 248.222C304.394 248.222 304.13 248.109 303.935 247.908C303.741 247.707 303.631 247.435 303.631 247.15C303.631 246.866 303.741 246.594 303.935 246.393C304.13 246.192 304.394 246.079 304.669 246.079V246.079Z" fill="#E6E6E6"/>
<path d="M333.292 205.87H308.921C308.268 205.871 307.641 206.139 307.18 206.616C306.718 207.093 306.458 207.74 306.457 208.414V239.088H335.092C335.328 239.089 335.558 239.02 335.756 238.889V208.414C335.755 207.74 335.495 207.093 335.034 206.616C334.572 206.139 333.946 205.871 333.292 205.87Z" fill="#F2F2F2"/>
<path d="M323.99 207.933H310.634C310.039 207.933 309.469 208.177 309.048 208.612C308.627 209.046 308.391 209.634 308.39 210.249V239.088H333.822V218.086C333.819 215.394 332.782 212.813 330.939 210.91C329.096 209.006 326.597 207.936 323.99 207.933Z" fill="white"/>
<path d="M329.489 236.527H312.723C312.578 236.527 312.439 236.587 312.336 236.692C312.234 236.798 312.176 236.942 312.176 237.091C312.176 237.241 312.234 237.385 312.336 237.49C312.439 237.596 312.578 237.656 312.723 237.656H329.489C329.634 237.656 329.773 237.596 329.876 237.49C329.978 237.385 330.036 237.241 330.036 237.091C330.036 236.942 329.978 236.798 329.876 236.692C329.773 236.587 329.634 236.527 329.489 236.527Z" fill="#E4E4E4"/>
<path d="M329.489 234.295H312.723C312.578 234.295 312.438 234.355 312.336 234.461C312.233 234.567 312.176 234.71 312.176 234.86C312.176 235.01 312.233 235.154 312.336 235.26C312.438 235.366 312.578 235.425 312.723 235.425H329.489C329.561 235.425 329.632 235.41 329.699 235.382C329.765 235.354 329.825 235.312 329.876 235.26C329.927 235.207 329.967 235.145 329.995 235.076C330.022 235.008 330.036 234.934 330.036 234.86C330.036 234.786 330.022 234.713 329.995 234.644C329.967 234.575 329.927 234.513 329.876 234.461C329.825 234.408 329.765 234.367 329.699 234.338C329.632 234.31 329.561 234.295 329.489 234.295Z" fill="#E4E4E4"/>
<path d="M319.991 232.064H312.723C312.578 232.064 312.439 232.124 312.336 232.23C312.234 232.336 312.176 232.479 312.176 232.629C312.176 232.778 312.234 232.922 312.336 233.028C312.439 233.134 312.578 233.193 312.723 233.193H319.991C320.136 233.193 320.275 233.134 320.377 233.028C320.48 232.922 320.537 232.778 320.537 232.629C320.537 232.479 320.48 232.336 320.377 232.23C320.275 232.124 320.136 232.064 319.991 232.064Z" fill="#E4E4E4"/>
<path d="M329.489 227.391H312.723C312.578 227.392 312.439 227.451 312.337 227.557C312.235 227.663 312.177 227.806 312.177 227.956C312.177 228.105 312.235 228.249 312.337 228.355C312.439 228.461 312.578 228.52 312.723 228.521H329.489C329.561 228.521 329.633 228.507 329.699 228.478C329.766 228.45 329.826 228.408 329.877 228.356C329.928 228.303 329.969 228.241 329.996 228.172C330.024 228.104 330.038 228.03 330.038 227.956C330.038 227.882 330.024 227.808 329.996 227.739C329.969 227.671 329.928 227.608 329.877 227.556C329.826 227.503 329.766 227.462 329.699 227.434C329.633 227.405 329.561 227.391 329.489 227.391Z" fill="#E4E4E4"/>
<path d="M329.489 225.16H312.723C312.578 225.16 312.439 225.22 312.336 225.326C312.234 225.431 312.176 225.575 312.176 225.725C312.176 225.874 312.234 226.018 312.336 226.124C312.439 226.229 312.578 226.289 312.723 226.289H329.489C329.634 226.289 329.773 226.229 329.876 226.124C329.978 226.018 330.036 225.874 330.036 225.725C330.036 225.575 329.978 225.431 329.876 225.326C329.773 225.22 329.634 225.16 329.489 225.16Z" fill="#E4E4E4"/>
<path d="M319.991 222.928H312.723C312.578 222.928 312.438 222.988 312.336 223.094C312.233 223.2 312.176 223.343 312.176 223.493C312.176 223.643 312.233 223.787 312.336 223.893C312.438 223.999 312.578 224.058 312.723 224.058H319.991C320.136 224.058 320.275 223.999 320.378 223.893C320.48 223.787 320.538 223.643 320.538 223.493C320.538 223.343 320.48 223.2 320.378 223.094C320.275 222.988 320.136 222.928 319.991 222.928Z" fill="#E4E4E4"/>
<path d="M329.489 218.255H312.723C312.578 218.255 312.439 218.315 312.337 218.421C312.235 218.527 312.177 218.67 312.177 218.82C312.177 218.969 312.235 219.113 312.337 219.219C312.439 219.325 312.578 219.384 312.723 219.385H329.489C329.561 219.385 329.633 219.37 329.699 219.342C329.766 219.314 329.826 219.272 329.877 219.22C329.928 219.167 329.969 219.105 329.996 219.036C330.024 218.968 330.038 218.894 330.038 218.82C330.038 218.745 330.024 218.672 329.996 218.603C329.969 218.535 329.928 218.472 329.877 218.42C329.826 218.367 329.766 218.326 329.699 218.297C329.633 218.269 329.561 218.255 329.489 218.255Z" fill="#E4E4E4"/>
<path d="M329.489 216.024H312.723C312.578 216.025 312.439 216.084 312.337 216.19C312.235 216.296 312.177 216.44 312.177 216.589C312.177 216.739 312.235 216.882 312.337 216.988C312.439 217.094 312.578 217.153 312.723 217.154H329.489C329.561 217.154 329.633 217.14 329.699 217.111C329.766 217.083 329.826 217.042 329.877 216.989C329.928 216.937 329.969 216.874 329.996 216.806C330.024 216.737 330.038 216.663 330.038 216.589C330.038 216.515 330.024 216.441 329.996 216.372C329.969 216.304 329.928 216.241 329.877 216.189C329.826 216.137 329.766 216.095 329.699 216.067C329.633 216.038 329.561 216.024 329.489 216.024Z" fill="#E4E4E4"/>
<path d="M319.991 213.792H312.723C312.578 213.792 312.438 213.852 312.336 213.958C312.233 214.064 312.176 214.207 312.176 214.357C312.176 214.507 312.233 214.651 312.336 214.757C312.438 214.863 312.578 214.922 312.723 214.922H319.991C320.063 214.922 320.134 214.907 320.2 214.879C320.266 214.851 320.327 214.809 320.378 214.757C320.428 214.704 320.469 214.642 320.496 214.573C320.524 214.505 320.538 214.431 320.538 214.357C320.538 214.283 320.524 214.209 320.496 214.141C320.469 214.072 320.428 214.01 320.378 213.958C320.327 213.905 320.266 213.864 320.2 213.835C320.134 213.807 320.063 213.792 319.991 213.792Z" fill="#E4E4E4"/>
<path d="M139.423 108.02C148.359 108.02 155.602 100.54 155.602 91.3133C155.602 82.0863 148.359 74.6063 139.423 74.6063C130.488 74.6063 123.244 82.0863 123.244 91.3133C123.244 100.54 130.488 108.02 139.423 108.02Z" fill="#FFB6B6"/>
<path d="M157.892 81.7472C156.19 79.0284 152.996 77.2164 149.9 77.7255C149.612 75.6852 148.787 73.7656 147.516 72.1758C146.244 70.586 144.575 69.3869 142.689 68.709C140.803 68.0311 138.774 67.9005 136.821 68.3313C134.868 68.7621 133.067 69.7379 131.615 71.1524C131.137 70.8051 130.58 70.591 129.999 70.5309C129.418 70.4708 128.831 70.5668 128.296 70.8095C127.23 71.3098 126.303 72.0782 125.6 73.0443C123.823 75.332 122.681 78.0745 122.294 80.9796C121.907 83.8847 122.29 86.8438 123.402 89.542C123.024 88.1215 124.403 86.7852 125.795 86.4665C127.188 86.1477 128.649 86.4493 130.062 86.2417C131.872 85.9757 133.499 84.8913 135.312 84.6473C136.836 84.4422 138.368 84.8456 139.854 85.25C141.34 85.6543 142.869 86.0667 144.395 85.8796C145.921 85.6925 147.886 91.6643 147.86 95.8705C147.855 96.6676 148.014 97.6911 148.768 97.8602C149.697 98.0685 150.235 96.7444 151.12 96.3837C151.527 96.2631 151.964 96.3105 152.338 96.5161C152.713 96.7216 152.995 97.0691 153.126 97.4855C153.238 97.9087 153.25 98.3533 153.161 98.7823C153.072 99.2113 152.886 99.6122 152.617 99.9517C152.074 100.625 151.428 101.203 150.706 101.663L151.07 101.976C151.676 102.803 152.933 102.838 153.806 102.327C154.641 101.743 155.317 100.948 155.77 100.018C157.385 97.2434 158.802 94.2873 159.372 91.104C159.942 87.9206 159.593 84.4661 157.892 81.7472Z" fill="#2F2E41"/>
<path d="M158.402 383.883L149.664 383.882L145.508 349.079L158.404 349.079L158.402 383.883Z" fill="#FFB6B6"/>
<path d="M158.71 393.295L131.84 393.294V392.943C131.84 390.079 132.942 387.332 134.903 385.307C136.865 383.282 139.525 382.144 142.298 382.144H142.299L147.207 378.299L156.365 382.144L158.71 382.144L158.71 393.295Z" fill="#2F2E41"/>
<path d="M174.158 367.951L167.303 373.546L143.141 348.906L153.258 340.647L174.158 367.951Z" fill="#FFB6B6"/>
<path d="M180.053 375.138L158.974 392.345L158.763 392.069C157.043 389.822 156.258 386.962 156.58 384.117C156.902 381.272 158.305 378.676 160.481 376.9L160.482 376.899L162.023 370.74L171.516 367.892L173.356 366.39L180.053 375.138Z" fill="#2F2E41"/>
<path d="M113.219 220.746L112.685 230.902L115.28 234.139L114.982 244.297L117.5 250.946L119.27 272.099L144.065 360.36L166.409 352.959L142.01 270.684L171.366 269.927L172.359 223.534L167.157 213.149L113.219 220.746Z" fill="#2F2E41"/>
<path d="M168.543 262.933L171.366 269.927L160.45 368.409L145.133 369.564L138.519 259.464L168.543 262.933Z" fill="#2F2E41"/>
<path d="M153.532 117.803L148.502 110.614L132.263 111.286L131.951 116.822L121.163 222.044L131.758 221.798L144.909 224.969L170.204 215.827L153.532 117.803Z" fill="#6C63FF"/>
<path d="M125.329 223.989H100.423L106.921 176.627L109.556 157.43C109.556 157.43 107.691 143.709 106.788 136.541C106.704 135.776 106.832 135.002 107.158 134.309C107.453 133.661 107.839 133.06 108.303 132.526C111.332 128.919 118.146 125.791 122.418 124.079C124.619 123.203 126.148 122.698 126.148 122.698L131.95 116.824C140.279 127.569 125.329 223.989 125.329 223.989Z" fill="#3F3D56"/>
<path d="M150.377 113.892L158.279 118.567C158.279 118.567 181.678 122.536 183.954 131.611L175.34 158.46V214.888L154.459 223.535C154.459 223.535 136.448 132.372 150.377 113.892Z" fill="#3F3D56"/>
<path opacity="0.4" d="M142.38 257.184L138.519 303.358L145.092 357.097" fill="black"/>
<path d="M49.1772 171.166C49.8208 170.689 50.558 170.363 51.3368 170.211C52.1157 170.059 52.9172 170.086 53.6851 170.289C54.4529 170.492 55.1683 170.866 55.7809 171.385C56.3935 171.905 56.8883 172.556 57.2306 173.294L76.374 171.059L71.8367 180.274L54.3534 180.984C53.1145 181.496 51.7368 181.521 50.4814 181.053C49.2261 180.586 48.1803 179.66 47.5423 178.45C46.9042 177.239 46.7183 175.829 47.0196 174.487C47.3209 173.145 48.0887 171.963 49.1773 171.166L49.1772 171.166Z" fill="#FFB6B6"/>
<path d="M129.524 130.815L135.002 134.195L104.321 178.828L66.8723 182.114L65.3811 171.073L92.9731 162.525L106.611 135.226L129.524 130.815Z" fill="#3F3D56"/>
<path d="M241.187 167.393C240.543 166.916 239.806 166.59 239.027 166.438C238.248 166.286 237.447 166.313 236.679 166.516C235.911 166.719 235.196 167.093 234.583 167.612C233.971 168.132 233.476 168.783 233.134 169.522L213.99 167.286L218.528 176.501L236.011 177.211C237.25 177.723 238.627 177.748 239.883 177.281C241.138 176.813 242.184 175.887 242.822 174.677C243.46 173.466 243.646 172.057 243.345 170.714C243.043 169.372 242.276 168.19 241.187 167.393V167.393Z" fill="#FFB6B6"/>
<path d="M160.84 127.042L155.362 130.422L186.043 175.055L223.492 178.341L224.983 167.3L197.391 158.752L183.753 131.453L160.84 127.042Z" fill="#3F3D56"/>
<path d="M86.2465 116.54V115.95H76.6703V102.189H76.1005V115.95H65.1255V105.323C64.9337 105.479 64.7442 105.639 64.5572 105.804V115.95H57.3085C57.2279 116.145 57.1503 116.342 57.077 116.54H64.5572V128.103H55.2696C55.2784 128.301 55.2915 128.496 55.3077 128.693H64.5572V137.918H57.6277C57.7127 138.116 57.802 138.311 57.8958 138.505H64.5572V146.259H65.1255V138.505H76.1005V146.259H76.6703V138.505H86.2465V137.918H76.6703C76.67 136.706 76.9009 135.507 77.3498 134.387C77.7986 133.268 78.4566 132.251 79.2862 131.394C80.1158 130.538 81.1007 129.858 82.1846 129.395C83.2685 128.931 84.4303 128.693 85.6034 128.693H86.2465V128.103H76.6703V116.54H86.2465ZM76.1005 137.918H65.1255V128.693H76.1005V137.918ZM76.1005 128.103H65.1255V127.872C65.1256 126.383 65.4096 124.91 65.9612 123.535C66.5128 122.16 67.3212 120.911 68.3403 119.859C69.3594 118.806 70.5693 117.972 71.9008 117.402C73.2323 116.833 74.6593 116.54 76.1005 116.54V128.103Z" fill="#E6E6E6"/>
<path d="M169.447 34.896C169.372 34.9279 169.288 34.9278 169.213 34.8958C169.139 34.8638 169.079 34.8026 169.048 34.7255L168.255 32.7468C168.225 32.6696 168.225 32.5829 168.256 32.5058C168.287 32.4286 168.346 32.3673 168.421 32.3354C168.495 32.3034 168.579 32.3035 168.654 32.3355C168.729 32.3674 168.788 32.4288 168.819 32.506L169.612 34.4846C169.643 34.5618 169.643 34.6485 169.612 34.7256C169.581 34.8027 169.522 34.864 169.447 34.896Z" fill="#3F3D56"/>
<path d="M185.441 20.2376L183.074 14.3314C182.894 13.8825 182.631 13.4746 182.298 13.1309C181.965 12.7873 181.571 12.5146 181.136 12.3286C180.701 12.1425 180.236 12.0467 179.765 12.0465C179.295 12.0463 178.829 12.1419 178.394 12.3277L166.277 17.5059C165.842 17.6917 165.447 17.964 165.114 18.3075C164.781 18.6509 164.517 19.0586 164.337 19.5074C164.157 19.9562 164.064 20.4372 164.064 20.923C164.064 21.4089 164.156 21.89 164.336 22.3389L177.321 54.7408C177.501 55.1897 177.765 55.5976 178.097 55.9412C178.43 56.2849 178.825 56.5575 179.259 56.7436C179.694 56.9296 180.16 57.0255 180.63 57.0256C181.101 57.0258 181.567 56.9303 182.001 56.7445L194.119 51.5662C194.554 51.3805 194.949 51.1081 195.281 50.7647C195.614 50.4213 195.878 50.0135 196.058 49.5647C196.238 49.116 196.331 48.6349 196.331 48.1491C196.332 47.6633 196.239 47.1822 196.059 46.7333L187.126 24.4417C187.153 24.43 187.178 24.4128 187.199 24.3912C187.22 24.3695 187.237 24.3438 187.248 24.3155C187.26 24.2872 187.266 24.2569 187.266 24.2262C187.266 24.1956 187.26 24.1652 187.248 24.1369L185.736 20.364C185.725 20.3357 185.708 20.3099 185.687 20.2883C185.666 20.2666 185.642 20.2494 185.614 20.2377C185.587 20.2259 185.557 20.2199 185.528 20.2199C185.498 20.2199 185.469 20.2259 185.441 20.2376Z" fill="#3F3D56"/>
<path d="M182.379 14.6553L195.345 47.0106C195.615 47.6826 195.617 48.4373 195.35 49.1108C195.084 49.7842 194.571 50.3219 193.923 50.6071C193.915 50.6124 193.906 50.6169 193.897 50.6204L181.721 55.8238C181.065 56.104 180.328 56.1037 179.672 55.8229C179.017 55.5422 178.496 55.0041 178.224 54.3269L165.258 21.9716C165.124 21.6363 165.055 21.277 165.055 20.9141C165.055 20.5513 165.125 20.1921 165.259 19.857C165.394 19.5219 165.591 19.2174 165.84 18.9611C166.089 18.7047 166.384 18.5014 166.708 18.3628L168.185 17.7318C168.186 17.9473 168.238 18.1592 168.338 18.3488C168.437 18.5385 168.579 18.7001 168.753 18.8193C168.927 18.9385 169.126 19.0118 169.334 19.0325C169.542 19.0533 169.751 19.021 169.944 18.9384L176.886 15.9717C177.038 15.9068 177.175 15.8115 177.291 15.6913C177.41 15.5704 177.504 15.4264 177.569 15.2676C177.634 15.1088 177.668 14.9384 177.669 14.766C177.67 14.5936 177.638 14.4228 177.575 14.2632C177.512 14.1036 177.419 13.9584 177.301 13.8361L178.885 13.1594C179.54 12.8794 180.277 12.8797 180.932 13.1602C181.587 13.4407 182.108 13.9785 182.379 14.6553Z" fill="#6C63FF"/>
<path d="M168.094 31.5206C168.019 31.5525 167.935 31.5524 167.861 31.5204C167.786 31.4884 167.727 31.4272 167.696 31.3501L166.903 29.3714C166.872 29.2942 166.872 29.2075 166.903 29.1303C166.934 29.0532 166.993 28.9919 167.068 28.96C167.143 28.928 167.227 28.9281 167.301 28.96C167.376 28.992 167.435 29.0534 167.466 29.1305L168.259 31.1092C168.29 31.1864 168.29 31.2731 168.259 31.3502C168.228 31.4273 168.169 31.4886 168.094 31.5206Z" fill="#3F3D56"/>
<path d="M166.499 27.7037C166.424 27.7355 166.34 27.7355 166.265 27.7035C166.191 27.6715 166.131 27.6103 166.1 27.5331L165.307 25.5545C165.292 25.5162 165.284 25.4752 165.284 25.4338C165.284 25.3923 165.291 25.3512 165.307 25.3129C165.322 25.2746 165.344 25.2398 165.373 25.2105C165.401 25.1812 165.435 25.1579 165.472 25.1421C165.509 25.1262 165.549 25.1181 165.589 25.1181C165.629 25.1182 165.669 25.1264 165.706 25.1424C165.743 25.1583 165.777 25.1816 165.805 25.211C165.833 25.2404 165.856 25.2753 165.871 25.3136L166.664 27.2923C166.695 27.3695 166.694 27.4561 166.664 27.5333C166.633 27.6104 166.573 27.6717 166.499 27.7037Z" fill="#3F3D56"/>
<path d="M170.962 16.935C170.931 16.8578 170.931 16.7712 170.962 16.6941C170.993 16.6169 171.053 16.5556 171.127 16.5236L173.043 15.7048C173.118 15.6728 173.202 15.6729 173.277 15.7049C173.352 15.7368 173.411 15.7982 173.442 15.8753C173.473 15.9525 173.473 16.0392 173.442 16.1164C173.411 16.1935 173.351 16.2548 173.277 16.2868L171.361 17.1056C171.286 17.1374 171.202 17.1373 171.127 17.1054C171.053 17.0734 170.993 17.0121 170.962 16.935Z" fill="white"/>
<path d="M174.231 15.8531C174.399 15.8531 174.536 15.7121 174.536 15.5382C174.536 15.3643 174.399 15.2233 174.231 15.2233C174.062 15.2233 173.926 15.3643 173.926 15.5382C173.926 15.7121 174.062 15.8531 174.231 15.8531Z" fill="white"/>
<path d="M240.371 155.587C240.333 155.587 240.294 155.586 240.255 155.584C239.802 155.567 239.36 155.438 238.966 155.206C238.572 154.975 238.238 154.649 237.993 154.255C236.153 151.416 233.896 148.891 231.302 146.771C229.731 145.475 228.09 144.269 226.503 143.104C222.41 140.098 218.554 137.267 216.414 133.355C211.748 124.825 217.243 112.944 225.093 107.616C233.898 101.64 245.48 100.703 256.684 100.58C257.848 100.567 259.013 100.561 260.179 100.561C280.366 100.569 300.511 102.471 320.364 106.244C326.966 107.502 333.877 109.042 339.43 112.782C344.95 116.499 348.305 122.352 347.978 127.695C347.5 135.494 339.494 141.322 332.203 142.845C325.255 144.296 318.036 143.316 310.393 142.277C308.706 142.048 306.962 141.811 305.237 141.605C286.489 139.367 251.269 146.265 249.779 146.559L248.301 146.852L242.565 154.474C242.307 154.821 241.975 155.102 241.594 155.295C241.214 155.488 240.795 155.588 240.371 155.587Z" fill="#6C63FF"/>
<path d="M323.859 117.54H244.617C244.159 117.54 243.721 117.352 243.397 117.018C243.074 116.684 242.892 116.232 242.892 115.759C242.892 115.287 243.074 114.834 243.397 114.5C243.721 114.166 244.159 113.979 244.617 113.979H323.859C324.316 113.979 324.754 114.166 325.078 114.5C325.401 114.834 325.583 115.287 325.583 115.759C325.583 116.232 325.401 116.684 325.078 117.018C324.754 117.352 324.316 117.54 323.859 117.54Z" fill="white"/>
<path d="M323.859 128.468H244.617C244.16 128.468 243.722 128.281 243.398 127.947C243.075 127.614 242.894 127.161 242.893 126.69C242.893 126.218 243.073 125.765 243.396 125.431C243.718 125.097 244.156 124.908 244.613 124.907H323.859C324.315 124.908 324.753 125.096 325.076 125.43C325.399 125.764 325.58 126.216 325.58 126.688C325.58 127.159 325.399 127.612 325.076 127.946C324.753 128.279 324.315 128.467 323.859 128.468Z" fill="white"/>
<path d="M253.851 139.396H244.617C244.16 139.395 243.722 139.208 243.399 138.874C243.077 138.54 242.895 138.088 242.895 137.616C242.895 137.144 243.077 136.692 243.399 136.358C243.722 136.024 244.16 135.836 244.617 135.835H253.851C254.308 135.836 254.746 136.024 255.068 136.358C255.391 136.692 255.572 137.144 255.572 137.616C255.572 138.088 255.391 138.54 255.068 138.874C254.746 139.208 254.308 139.395 253.851 139.396Z" fill="white"/>
<path d="M241.35 167.999C245.978 167.999 249.73 164.124 249.73 159.345C249.73 154.565 245.978 150.69 241.35 150.69C236.721 150.69 232.969 154.565 232.969 159.345C232.969 164.124 236.721 167.999 241.35 167.999Z" fill="white"/>
<path d="M241.35 168.105C239.672 168.105 238.032 167.591 236.637 166.628C235.242 165.666 234.154 164.298 233.512 162.697C232.87 161.096 232.702 159.335 233.03 157.636C233.357 155.937 234.165 154.376 235.351 153.151C236.538 151.925 238.049 151.091 239.695 150.753C241.34 150.415 243.046 150.589 244.596 151.252C246.146 151.915 247.471 153.037 248.403 154.478C249.335 155.918 249.833 157.612 249.833 159.345C249.83 161.667 248.936 163.894 247.345 165.536C245.755 167.178 243.599 168.102 241.35 168.105Z" fill="#3F3D56"/>
<path d="M240.722 162.803C240.704 162.803 240.686 162.803 240.669 162.802C240.511 162.794 240.356 162.751 240.216 162.676C240.076 162.601 239.953 162.495 239.856 162.366L238.456 160.507C238.367 160.389 238.302 160.255 238.264 160.112C238.226 159.968 238.215 159.819 238.233 159.671C238.251 159.523 238.297 159.381 238.368 159.252C238.439 159.122 238.534 159.009 238.648 158.918L238.698 158.877C238.812 158.786 238.942 158.718 239.081 158.679C239.22 158.639 239.365 158.629 239.508 158.647C239.651 158.665 239.789 158.713 239.914 158.786C240.039 158.86 240.149 158.958 240.237 159.076C240.308 159.169 240.398 159.246 240.5 159.301C240.602 159.356 240.714 159.387 240.829 159.393C240.944 159.399 241.059 159.379 241.166 159.335C241.273 159.29 241.369 159.223 241.448 159.137L244.292 156.036C244.492 155.819 244.768 155.692 245.059 155.684C245.349 155.676 245.631 155.787 245.842 155.993L245.889 156.039C245.994 156.141 246.078 156.264 246.136 156.399C246.195 156.535 246.227 156.682 246.231 156.83C246.235 156.979 246.211 157.127 246.159 157.266C246.108 157.405 246.03 157.532 245.931 157.64L241.518 162.45C241.415 162.561 241.292 162.65 241.155 162.711C241.019 162.772 240.871 162.803 240.722 162.803Z" fill="white"/>
<path d="M84.8638 47.4744L79.7365 15.6338C79.6334 14.9892 79.7821 14.3287 80.1501 13.7972C80.518 13.2658 81.075 12.9067 81.699 12.7988L104.986 8.80015C105.61 8.69372 106.249 8.84731 106.764 9.22723C107.279 9.60716 107.626 10.1824 107.731 10.8267L112.858 42.6673C112.961 43.3119 112.812 43.9724 112.445 44.5038C112.077 45.0353 111.52 45.3944 110.896 45.5023L87.6091 49.5009C86.9849 49.6074 86.3453 49.4538 85.8307 49.0738C85.316 48.6939 84.9683 48.1187 84.8638 47.4744Z" fill="#3F3D56"/>
<path d="M85.1013 37.5504L81.8051 17.0804C81.7085 16.4768 81.8478 15.8582 82.1924 15.3605C82.5369 14.8627 83.0586 14.5264 83.643 14.4254L103.656 10.9889C104.24 10.8892 104.839 11.033 105.321 11.3888C105.803 11.7446 106.129 12.2833 106.227 12.8868L110.79 41.2206C110.886 41.8243 110.747 42.4428 110.402 42.9406C110.058 43.4383 109.536 43.7746 108.952 43.8756L96.554 46.0044C93.9501 46.4485 91.2819 45.8078 89.1349 44.2229C86.9878 42.638 85.5372 40.2384 85.1013 37.5504Z" fill="white"/>
<path d="M85.9651 22.2355C85.8708 21.6457 86.0069 21.0412 86.3436 20.5548C86.6803 20.0684 87.1901 19.7398 87.7611 19.6411L101.644 17.2572C101.927 17.2086 102.216 17.218 102.496 17.2849C102.775 17.3519 103.039 17.4749 103.272 17.6472C103.505 17.8194 103.704 18.0374 103.855 18.2887C104.007 18.54 104.109 18.8197 104.156 19.1118C104.203 19.4039 104.194 19.7028 104.13 19.9913C104.065 20.2798 103.946 20.5522 103.779 20.7932C103.612 21.0341 103.401 21.2387 103.158 21.3954C102.914 21.5521 102.643 21.6577 102.36 21.7063L88.4776 24.0902C87.9063 24.1876 87.321 24.0471 86.85 23.6994C86.3789 23.3517 86.0607 22.8252 85.9651 22.2355Z" fill="#6C63FF"/>
<path d="M87.0796 29.1564C86.9852 28.5665 87.1213 27.962 87.458 27.4756C87.7947 26.9892 88.3046 26.6606 88.8756 26.5619L102.758 24.178C103.33 24.0799 103.915 24.2202 104.387 24.568C104.858 24.9158 105.176 25.4426 105.271 26.0326C105.366 26.6226 105.23 27.2274 104.893 27.714C104.556 28.2005 104.046 28.529 103.475 28.6271L89.592 31.011C89.0208 31.1084 88.4354 30.9679 87.9644 30.6202C87.4934 30.2725 87.1752 29.7461 87.0796 29.1564Z" fill="#6C63FF"/>
<path d="M88.1941 36.0772C88.0997 35.4873 88.2358 34.8829 88.5725 34.3965C88.9092 33.9101 89.419 33.5815 89.9901 33.4827L103.873 31.0988C104.156 31.0503 104.445 31.0597 104.725 31.1266C105.004 31.1935 105.268 31.3166 105.501 31.4888C105.734 31.661 105.933 31.879 106.084 32.1303C106.236 32.3816 106.338 32.6613 106.385 32.9535C106.432 33.2456 106.423 33.5445 106.358 33.8329C106.294 34.1214 106.174 34.3939 106.008 34.6348C105.841 34.8757 105.63 35.0804 105.386 35.2371C105.143 35.3937 104.872 35.4994 104.589 35.548L90.7065 37.9319C90.1353 38.0293 89.5499 37.8887 89.0789 37.541C88.6079 37.1933 88.2897 36.6669 88.1941 36.0772Z" fill="#6C63FF"/>
<path d="M206.531 371.296L206.9 362.727C210.748 360.603 215.039 359.481 219.402 359.459C213.397 364.528 214.148 374.3 210.077 381.117C208.791 383.233 207.061 385.023 205.015 386.355C202.968 387.687 200.658 388.526 198.254 388.81L193.23 391.987C192.54 388.018 192.692 383.942 193.675 380.039C194.658 376.136 196.449 372.5 198.924 369.381C200.329 367.645 201.94 366.099 203.72 364.779C204.923 368.056 206.531 371.296 206.531 371.296Z" fill="#F2F2F2"/>
<path d="M273.153 392.911C273.153 393.021 273.132 393.13 273.092 393.232C273.051 393.334 272.991 393.426 272.916 393.504C272.841 393.582 272.751 393.643 272.653 393.685C272.554 393.727 272.449 393.749 272.342 393.748H54.1442C53.9292 393.748 53.723 393.66 53.571 393.503C53.4189 393.346 53.3335 393.133 53.3335 392.911C53.3335 392.689 53.4189 392.476 53.571 392.319C53.723 392.162 53.9292 392.074 54.1442 392.074H272.342C272.449 392.074 272.554 392.095 272.653 392.137C272.751 392.179 272.841 392.241 272.916 392.318C272.991 392.396 273.051 392.489 273.092 392.59C273.132 392.692 273.153 392.801 273.153 392.911Z" fill="#CCCCCC"/>
<path d="M54.67 166.854C50.8002 166.774 30.0136 166.158 26.6049 166.309C26.4121 165.612 19.9503 174.164 19.7931 174.217C19.6884 174.331 19.6119 174.47 19.5704 174.621C19.5288 174.772 19.5232 174.932 19.5542 175.086C19.5853 175.24 19.6519 175.383 19.7485 175.505C19.845 175.627 19.9686 175.722 20.1088 175.784C20.4886 176.022 53.9993 175.382 54.4053 175.466C54.581 175.463 54.7523 175.409 54.8994 175.31C55.0466 175.211 55.1637 175.071 55.2372 174.906L55.4612 174.388C55.4845 173.502 55.7654 168.972 55.5132 168.198C55.5751 168.052 55.6011 167.893 55.5887 167.735C55.5764 167.577 55.5262 167.424 55.4426 167.291C55.359 167.158 55.2446 167.048 55.1097 166.972C54.9749 166.895 54.8238 166.855 54.67 166.854Z" fill="#3F3D56"/>
<path opacity="0.17" d="M55.4612 174.387C55.2645 174.875 55.0129 175.488 54.4053 175.466L20.4626 175.859C20.3021 175.857 20.1447 175.813 20.0056 175.73C19.8665 175.647 19.7503 175.529 19.6683 175.386C19.5863 175.244 19.5411 175.082 19.5371 174.916C19.5332 174.75 19.5705 174.586 19.6456 174.44L55.4612 174.387Z" fill="black"/>
<path d="M26.7635 166.205C26.3982 165.552 17.3236 119.185 16.5662 118.797L10.3706 110.97L9.81685 110.54C9.0468 110.104 7.19964 110.399 7.36599 111.614C8.82153 118.82 18.1836 159.862 18.3887 166.261L19.5157 174.413C19.5358 174.551 19.5838 174.684 19.6567 174.803C19.7295 174.921 19.8256 175.022 19.9387 175.1C20.0518 175.178 20.1794 175.23 20.3132 175.254C20.4471 175.277 20.5843 175.272 20.716 175.237C21.039 175.201 21.3474 175.079 21.6107 174.882C21.8741 174.686 22.0833 174.422 22.2178 174.117C22.3023 173.829 27.1878 166.372 26.7635 166.205Z" fill="#3F3D56"/>
<path opacity="0.17" d="M10.3691 110.971L22.2189 174.118C21.8227 175.154 19.9683 175.88 19.5364 174.521C19.5289 174.519 7.37981 111.652 7.36746 111.615C7.23801 110.102 9.65902 110.054 10.3691 110.971Z" fill="black"/>
<path d="M10.726 113.553L16.7445 122.215L23.4995 155.344L20.359 158.172L10.726 113.553Z" fill="#6C63FF"/>
<path d="M50.7853 171.32L52.4503 171.391C52.4763 170.887 52.5568 170.388 52.6904 169.903C52.9409 168.674 53.1653 167.213 52.1267 167.219C51.422 167.149 51.1819 168.07 51.0567 169.073C51.0244 169.828 50.9336 170.58 50.7853 171.32Z" fill="#2F2E41"/>
<path d="M41.2337 169.008L42.3559 169.051L42.8987 169.073C42.8883 168.459 43.1649 167.192 42.4916 166.879C42.3845 166.832 42.2689 166.808 42.1524 166.809C41.5208 166.772 41.3329 167.267 41.2755 167.839C41.239 168.184 41.2546 168.55 41.2442 168.836C41.2442 168.895 41.239 168.954 41.2337 169.008Z" fill="#2F2E41"/>
<path d="M37.909 168.868L39.0364 168.917L39.574 168.938C39.5635 168.232 39.9237 166.691 38.8276 166.669C37.815 166.61 37.9455 167.941 37.9194 168.696C37.9194 168.755 37.9142 168.814 37.909 168.868Z" fill="#2F2E41"/>
<path d="M34.5842 168.733L35.7064 168.777L36.2492 168.798C36.2388 168.097 36.5989 166.556 35.5028 166.534C34.4903 166.47 34.6208 167.801 34.5947 168.561C34.5946 168.62 34.5894 168.68 34.5842 168.733Z" fill="#2F2E41"/>
<path d="M31.2594 168.593L32.3868 168.642L32.9244 168.663C32.914 167.957 33.2741 166.421 32.178 166.394C31.1655 166.335 31.2959 167.666 31.2698 168.421C31.2699 168.48 31.2646 168.539 31.2594 168.593Z" fill="#2F2E41"/>
<path d="M27.9346 168.459L29.0568 168.502L29.5996 168.523C29.5892 167.876 29.8919 166.524 29.0881 166.292H29.0829C29.0084 166.269 28.931 166.258 28.8533 166.259C28.7585 166.251 28.663 166.26 28.5714 166.286H28.5662C27.8668 166.475 27.966 167.607 27.9451 168.286C27.9451 168.345 27.9399 168.405 27.9346 168.459Z" fill="#2F2E41"/>
<path d="M47.4292 168.092L49.0942 168.162C49.0942 168.097 49.0942 168.027 49.0994 167.946C49.1406 167.536 49.1476 167.124 49.1203 166.712C49.0629 166.259 48.875 165.904 48.3478 165.893C47.8102 165.861 47.5962 166.216 47.5127 166.674C47.4933 166.752 47.4793 166.832 47.4709 166.912V166.917C47.4292 167.337 47.4553 167.79 47.4292 168.092Z" fill="#2F2E41"/>
<path d="M44.1044 167.952L45.7694 168.022C45.8047 167.559 45.8152 167.095 45.8007 166.631C45.7538 166.157 45.5711 165.769 45.023 165.758C44.4697 165.72 44.2558 166.109 44.1723 166.588C44.094 167.052 44.1357 167.607 44.1044 167.952Z" fill="#2F2E41"/>
<path d="M40.7797 167.817L41.2755 167.839L42.4447 167.887C42.4394 167.628 42.4864 167.251 42.4916 166.879C42.4961 166.768 42.4926 166.656 42.4812 166.545C42.4395 166.044 42.2672 165.629 41.6983 165.618C41.1189 165.586 40.9154 166.001 40.8423 166.507C40.7692 166.96 40.811 167.483 40.7797 167.817Z" fill="#2F2E41"/>
<path d="M47.4605 171.186L49.1255 171.25C49.1203 170.55 49.4752 169.008 48.3791 168.987C47.283 168.917 47.5231 170.48 47.4605 171.186Z" fill="#2F2E41"/>
<path d="M44.1357 171.046L45.8007 171.116C45.7955 170.41 46.1504 168.868 45.0544 168.847C43.9583 168.782 44.1984 170.345 44.1357 171.046Z" fill="#2F2E41"/>
<path d="M40.811 170.911L42.476 170.976C42.4708 170.474 42.6534 169.547 42.3559 169.051C42.291 168.942 42.1985 168.852 42.0882 168.792C41.9779 168.732 41.854 168.705 41.7296 168.712C41.5587 168.693 41.3869 168.737 41.2442 168.836C40.7118 169.197 40.8632 170.34 40.811 170.911Z" fill="#2F2E41"/>
<path d="M37.4862 170.771L39.1512 170.841C39.146 170.34 39.3234 169.418 39.0364 168.917C38.9715 168.805 38.8784 168.714 38.7671 168.653C38.6558 168.593 38.5305 168.564 38.4048 168.572C38.2339 168.552 38.0619 168.596 37.9194 168.696C37.387 169.068 37.5384 170.205 37.4862 170.771Z" fill="#2F2E41"/>
<path d="M34.1614 170.636L35.8264 170.701C35.8212 170.199 36.0039 169.272 35.7064 168.777C35.6415 168.667 35.5489 168.577 35.4386 168.517C35.3283 168.458 35.2044 168.43 35.08 168.437C34.9091 168.418 34.7374 168.462 34.5946 168.561C34.0623 168.922 34.2136 170.065 34.1614 170.636Z" fill="#2F2E41"/>
<path d="M30.8367 170.496L32.5016 170.566C32.4964 170.065 32.6739 169.143 32.3868 168.642C32.3225 168.53 32.2295 168.438 32.118 168.378C32.0066 168.317 31.8811 168.289 31.7553 168.297C31.5844 168.277 31.4123 168.321 31.2699 168.421C30.7375 168.793 30.8889 169.93 30.8367 170.496Z" fill="#2F2E41"/>
<path d="M27.5119 170.361L29.1769 170.426C29.1717 169.925 29.3491 169.003 29.0568 168.502C28.9924 168.391 28.9 168.301 28.7896 168.242C28.6791 168.182 28.555 168.154 28.4305 168.162C28.2596 168.143 28.0878 168.187 27.9451 168.286C27.4127 168.653 27.5641 169.79 27.5119 170.361Z" fill="#2F2E41"/>
</g>
<defs>
<clipPath id="clip0_3_16">
<rect width="348" height="393.054" fill="white" transform="translate(0 0.694641)"/>
</clipPath>
</defs>
</svg>
