<svg width="476" height="336" viewBox="0 0 476 336" fill="none" xmlns="http://www.w3.org/2000/svg">
<path d="M202.217 143.275C201.47 142.726 200.756 142.133 200.08 141.498L201.005 140.517C201.641 141.114 202.313 141.673 203.017 142.19L202.217 143.275Z" fill="#E4E4E4"/>
<path d="M196.367 136.971C195.332 135.308 194.517 133.518 193.941 131.647L195.231 131.251C195.773 133.011 196.54 134.695 197.513 136.259L196.367 136.971ZM192.95 125.883C192.937 125.565 192.93 125.246 192.93 124.927C192.93 123.289 193.107 121.656 193.458 120.057L194.776 120.345C194.446 121.85 194.28 123.386 194.28 124.927C194.28 125.227 194.286 125.527 194.299 125.827L192.95 125.883ZM196.642 115.17L195.442 114.553C196 113.473 196.642 112.439 197.363 111.46C197.806 110.86 198.284 110.286 198.795 109.743L199.778 110.666C199.304 111.17 198.861 111.702 198.45 112.259C197.772 113.18 197.167 114.154 196.642 115.17H196.642ZM204.109 107.352L203.472 106.164C205.214 105.232 207.095 104.587 209.043 104.253L209.272 105.582C207.467 105.89 205.723 106.488 204.109 107.352H204.109ZM219.922 107.205C218.294 106.368 216.541 105.801 214.731 105.527L214.933 104.195C216.888 104.491 218.781 105.102 220.539 106.006L219.922 107.205Z" fill="#E4E4E4"/>
<path d="M225.805 112.538C225.363 111.805 224.851 111.115 224.278 110.479L225.28 109.577C225.912 110.277 226.475 111.036 226.962 111.844L225.805 112.538Z" fill="#E4E4E4"/>
<path d="M174.062 98.1999L172.975 97.4014C173.515 96.6683 174.084 95.9433 174.667 95.2466L175.703 96.1104C175.138 96.7861 174.586 97.4892 174.062 98.1999Z" fill="#E4E4E4"/>
<path d="M240.935 96.6415C239.898 95.2042 238.749 93.8507 237.499 92.5937L238.456 91.6438C239.756 92.9513 240.951 94.359 242.03 95.8539L240.935 96.6415ZM179.376 92.2394L178.456 91.2527C179.802 90.0026 181.225 88.8385 182.717 87.7672L183.505 88.8618C182.059 89.8999 180.68 91.028 179.376 92.2394ZM233.469 89.1316C232.033 88.0793 230.534 87.1168 228.979 86.2496L229.636 85.0725C231.24 85.967 232.787 86.9598 234.268 88.0454L233.469 89.1316ZM188.028 86.0322L187.385 84.8472C189.001 83.9736 190.67 83.2021 192.383 82.5372L192.872 83.7933C191.212 84.4378 189.594 85.1856 188.028 86.0322ZM224.164 83.9517C222.513 83.2882 220.821 82.7294 219.098 82.2786L219.44 80.9747C221.218 81.44 222.964 82.0167 224.668 82.7013L224.164 83.9517ZM197.958 82.1777L197.631 80.8703C199.413 80.4251 201.221 80.0911 203.045 79.87L203.207 81.2081C201.439 81.4224 199.686 81.7462 197.958 82.1777V82.1777ZM213.861 81.2564C212.095 81.0264 210.317 80.9069 208.536 80.8986L208.542 79.5508C210.379 79.5595 212.214 79.6828 214.036 79.92L213.861 81.2564Z" fill="#E4E4E4"/>
<path d="M244.788 103.592C244.456 102.779 244.087 101.97 243.693 101.187L244.899 100.582C245.309 101.396 245.692 102.237 246.037 103.083L244.788 103.592Z" fill="#E4E4E4"/>
<path d="M248.487 182.795L248.023 181.529C248.855 181.225 249.693 180.9 250.514 180.562L251.028 181.809C250.19 182.153 249.335 182.485 248.487 182.795Z" fill="#E4E4E4"/>
<path d="M227.443 186.913L227.394 185.566C229.145 185.502 230.915 185.368 232.655 185.167L232.81 186.506C231.035 186.711 229.23 186.848 227.443 186.913ZM222.061 186.897C220.273 186.821 218.468 186.674 216.697 186.458L216.861 185.12C218.597 185.331 220.366 185.476 222.118 185.55L222.061 186.897ZM238.128 185.681L237.868 184.358C239.587 184.022 241.315 183.613 243.002 183.143L243.365 184.442C241.643 184.921 239.881 185.338 238.128 185.681ZM211.385 185.597C209.633 185.241 207.874 184.811 206.157 184.318L206.53 183.023C208.213 183.506 209.937 183.928 211.654 184.276L211.385 185.597ZM201.047 182.628C199.375 182 197.706 181.297 196.089 180.538L196.663 179.318C198.248 180.062 199.883 180.751 201.522 181.367L201.047 182.628ZM191.312 178.063C189.764 177.181 188.228 176.225 186.746 175.22L187.504 174.105C188.957 175.09 190.463 176.028 191.981 176.892L191.312 178.063Z" fill="#E4E4E4"/>
<path d="M182.404 172.004C181.7 171.43 181.003 170.832 180.331 170.227L181.235 169.226C181.891 169.817 182.571 170.4 183.258 170.96L182.404 172.004Z" fill="#E4E4E4"/>
<path d="M145.041 36.1082L144.347 34.9517C145.122 34.4884 145.913 34.0297 146.696 33.5884L147.359 34.762C146.586 35.1979 145.806 35.6506 145.041 36.1082Z" fill="#E4E4E4"/>
<path d="M274.971 54.515C273.815 53.1699 272.598 51.8429 271.354 50.5717L272.319 49.6297C273.583 50.9218 274.82 52.2701 275.995 53.6371L274.971 54.515ZM267.49 46.8679C266.171 45.6822 264.794 44.5211 263.398 43.4172L264.235 42.3603C265.654 43.482 267.053 44.6615 268.393 45.8663L267.49 46.8679ZM259.096 40.2233C257.636 39.1997 256.134 38.2018 254.631 37.2577L255.35 36.1169C256.872 37.0732 258.393 38.0836 259.871 39.1203L259.096 40.2233ZM250.023 34.5228C248.471 33.6545 246.875 32.8146 245.28 32.0262L245.879 30.8183C247.495 31.6166 249.111 32.4675 250.683 33.347L250.023 34.5228ZM152.098 32.2497L151.496 31.0436C153.11 30.2401 154.767 29.4679 156.42 28.7484L156.959 29.9839C155.327 30.6942 153.691 31.4565 152.098 32.2497L152.098 32.2497ZM240.415 29.7764C238.781 29.0709 237.108 28.3989 235.44 27.7792L235.911 26.5161C237.6 27.1439 239.296 27.8246 240.951 28.5391L240.415 29.7764ZM161.93 27.9699L161.455 26.7085C163.141 26.0752 164.868 25.4761 166.588 24.9281L166.998 26.2123C165.3 26.7532 163.595 27.3447 161.93 27.9699L161.93 27.9699ZM230.369 26.0405C228.672 25.5075 226.938 25.0113 225.214 24.5657L225.552 23.2609C227.299 23.7122 229.056 24.215 230.774 24.755L230.369 26.0405ZM172.149 24.7153L171.805 23.4119C173.547 22.9536 175.326 22.5333 177.093 22.163L177.37 23.4818C175.625 23.8477 173.869 24.2628 172.149 24.7153L172.149 24.7153ZM219.99 23.3577C218.248 23.0016 216.471 22.6859 214.71 22.4194L214.912 21.087C216.696 21.3568 218.496 21.6766 220.26 22.0371L219.99 23.3577ZM182.647 22.5159L182.437 21.1844C184.217 20.9051 186.03 20.6675 187.825 20.4785L187.966 21.8188C186.194 22.0057 184.404 22.2402 182.647 22.5159V22.5159ZM209.388 21.7532C207.618 21.5773 205.819 21.445 204.039 21.3596L204.104 20.0136C205.906 20.0998 207.729 20.2339 209.522 20.412L209.388 21.7532ZM193.314 21.393L193.241 20.0474C195.043 19.9498 196.87 19.8976 198.672 19.8921L198.676 21.2399C196.897 21.2454 195.093 21.2969 193.314 21.393L193.314 21.393Z" fill="#E4E4E4"/>
<path d="M279.921 60.8726C279.41 60.1454 278.88 59.418 278.348 58.7108L279.427 57.9009C279.968 58.6197 280.506 59.359 281.026 60.0983L279.921 60.8726Z" fill="#E4E4E4"/>
<path d="M218.459 278.829C217.564 278.714 216.67 278.592 215.776 278.463L215.969 277.129C216.856 277.257 217.743 277.378 218.631 277.492L218.459 278.829Z" fill="#E4E4E4"/>
<path d="M210.313 277.578C208.507 277.254 206.68 276.894 204.885 276.51L205.168 275.192C206.949 275.573 208.76 275.93 210.552 276.251L210.313 277.578ZM199.495 275.261C197.711 274.815 195.913 274.334 194.151 273.831L194.523 272.535C196.269 273.034 198.052 273.511 199.823 273.953L199.495 275.261ZM188.859 272.222C187.108 271.658 185.347 271.057 183.623 270.436L184.081 269.168C185.791 269.784 187.537 270.38 189.273 270.94L188.859 272.222ZM178.451 268.476C176.748 267.797 175.031 267.079 173.348 266.342L173.891 265.108C175.559 265.839 177.262 266.551 178.952 267.224L178.451 268.476ZM168.32 264.038C166.664 263.246 165 262.414 163.373 261.567L163.997 260.372C165.61 261.212 167.261 262.037 168.904 262.823L168.32 264.038ZM158.511 258.932C156.918 258.034 155.313 257.094 153.741 256.137L154.443 254.986C156.003 255.935 157.595 256.868 159.175 257.758L158.511 258.932ZM149.066 253.184C147.532 252.18 145.993 251.135 144.491 250.079L145.268 248.977C146.758 250.024 148.284 251.061 149.806 252.057L149.066 253.184ZM140.019 246.82C138.551 245.707 137.091 244.552 135.677 243.386L136.537 242.347C137.936 243.501 139.382 244.645 140.835 245.746L140.019 246.82ZM131.482 239.775C130.114 238.548 128.754 237.276 127.44 235.994L128.383 235.03C129.684 236.298 131.03 237.558 132.384 238.773L131.482 239.775ZM123.559 232.046C122.299 230.709 121.051 229.327 119.849 227.939L120.869 227.058C122.059 228.431 123.295 229.799 124.542 231.122L123.559 232.046ZM116.314 223.68C115.171 222.242 114.043 220.76 112.962 219.276L114.054 218.483C115.123 219.952 116.239 221.418 117.371 222.842L116.314 223.68Z" fill="#E4E4E4"/>
<path d="M109.783 214.711C109.282 213.958 108.79 213.201 108.306 212.44L109.445 211.717C109.924 212.471 110.412 213.22 110.907 213.965L109.783 214.711Z" fill="#E4E4E4"/>
<path d="M398.501 58.3116L381.678 73.777L395.048 51.3759C384.515 32.302 367.288 15.8174 367.288 15.8174C367.288 15.8174 331.548 50.0103 331.548 76.8882C331.548 103.766 347.549 113.151 367.288 113.151C387.026 113.151 403.027 103.766 403.027 76.8881C403.027 70.9057 401.254 64.5611 398.501 58.3116Z" fill="#F2F2F2"/>
<path d="M377.352 74.6145V75.9393C377.273 91.3391 374.672 103.355 369.569 111.815C369.497 111.94 369.418 112.058 369.346 112.183L368.774 111.835L368.229 111.494C373.891 102.358 375.894 89.4436 375.966 76.0115C375.973 75.5786 375.979 75.1392 375.973 74.6997C375.953 69.0133 375.605 63.2614 375.047 57.6734C375.007 57.2405 374.961 56.8011 374.915 56.3617C374.14 48.9897 373.024 41.9457 371.881 35.8265C371.802 35.3936 371.717 34.9608 371.631 34.5344C369.654 24.1848 367.638 16.6883 367.178 15.0289C367.126 14.8256 367.093 14.7141 367.086 14.6879L367.71 14.5108L367.717 14.5042L368.347 14.3271C368.354 14.3534 368.465 14.7273 368.649 15.4225C369.352 18.0197 371.178 25.0703 372.971 34.3704C373.05 34.7902 373.135 35.2231 373.214 35.656C374.147 40.6209 375.06 46.1695 375.782 51.9936C375.966 53.4562 376.13 54.8991 376.275 56.3223C376.327 56.7617 376.373 57.2012 376.413 57.6341C377.017 63.6746 377.33 69.3348 377.352 74.6145Z" fill="white"/>
<path d="M372.971 34.3701C372.531 34.4292 372.084 34.4882 371.631 34.5341C370.401 34.6606 369.164 34.7241 367.927 34.7243C362.654 34.7313 357.447 33.5569 352.689 31.2876C352.413 31.6352 352.137 31.9828 351.855 32.337C356.86 34.7766 362.357 36.0419 367.927 36.0361C369.248 36.0357 370.568 35.9656 371.881 35.8262C372.327 35.7803 372.774 35.7212 373.214 35.6557C376.847 35.1354 380.379 34.0672 383.69 32.4878C383.408 32.1271 383.132 31.7729 382.863 31.4253C379.729 32.8879 376.396 33.8803 372.971 34.3701Z" fill="white"/>
<path d="M376.275 56.322C375.822 56.3483 375.368 56.3614 374.915 56.3614C374.777 56.3679 374.633 56.3679 374.495 56.3679C368.782 56.368 363.153 54.9885 358.089 52.347C353.025 49.7055 348.675 45.8804 345.412 41.1978C345.149 41.5847 344.886 41.9717 344.63 42.3652C348.032 47.1032 352.515 50.9638 357.709 53.627C362.902 56.2902 368.657 57.6795 374.495 57.6797C374.679 57.6797 374.863 57.6797 375.047 57.6731C375.506 57.6666 375.96 57.6534 376.413 57.6338C383.426 57.2751 390.186 54.907 395.887 50.8127C395.677 50.4258 395.467 50.0388 395.25 49.6519C389.71 53.6716 383.115 55.9897 376.275 56.322Z" fill="white"/>
<path d="M377.352 74.6144C376.892 74.6537 376.433 74.6799 375.973 74.6996C375.48 74.7193 374.988 74.7324 374.495 74.7324C366.818 74.7236 359.35 72.2318 353.21 67.6301C347.069 63.0285 342.587 56.5645 340.433 49.2061C340.138 49.7373 339.842 50.262 339.56 50.7933C341.986 58.1347 346.668 64.5258 352.939 69.0588C359.211 73.5917 366.753 76.0359 374.495 76.0442C374.988 76.0442 375.48 76.0376 375.966 76.0114C376.433 75.9982 376.892 75.972 377.352 75.9392C386.639 75.2137 395.302 70.9913 401.588 64.127C401.45 63.6417 401.292 63.1629 401.135 62.6776C395.063 69.5933 386.532 73.875 377.352 74.6144Z" fill="white"/>
<path d="M54.1583 69.0206L65.1307 89.0539L46.5849 70.6943C25.507 76.3012 5.33099 89.0195 5.33099 89.0195C5.33099 89.0195 29.941 131.902 56.0625 138.385C82.184 144.869 95.1642 131.626 99.9253 112.497C104.686 93.3686 99.4253 75.5983 73.3038 69.1152C67.4897 67.6722 60.896 67.8602 54.1583 69.0206Z" fill="#F2F2F2"/>
<path d="M64.9008 93.4483L66.1884 93.7678C81.1358 97.5587 92.1858 102.977 99.1774 109.964C99.281 110.064 99.3768 110.169 99.4804 110.269L99.0048 110.739L98.5419 111.185C91.0284 103.494 78.9609 98.4382 65.9242 95.1283C65.5051 95.0175 65.0796 94.9051 64.651 94.8055C59.1199 93.453 53.4458 92.4029 47.8804 91.5961C47.4502 91.5298 47.0121 91.4684 46.5739 91.407C39.2225 90.3799 32.1074 89.7629 25.8847 89.3944C25.4449 89.3664 25.0037 89.3447 24.5687 89.3246C14.0336 88.7441 6.26159 88.89 4.53804 88.9353C4.32778 88.9371 4.2115 88.9421 4.18441 88.9421L4.16282 88.2947L4.15802 88.2868L4.138 87.633C4.16511 87.633 4.55536 87.615 5.27536 87.6044C7.969 87.5498 15.2616 87.481 24.7326 87.9866C25.1595 88.0115 25.6008 88.0332 26.0405 88.0612C31.0907 88.355 36.7034 88.8086 42.5378 89.5132C44.0036 89.6878 45.4455 89.8767 46.8636 90.08C47.3033 90.1351 47.7415 90.1965 48.1717 90.2627C54.188 91.1341 59.7644 92.196 64.9008 93.4483Z" fill="white"/>
<path d="M24.7326 87.9868C24.6838 88.4275 24.6335 88.8745 24.5687 89.3248C24.3948 90.548 24.1583 91.7615 23.8601 92.9605C22.5951 98.072 20.1977 102.835 16.8446 106.898C17.1159 107.25 17.3872 107.601 17.6633 107.96C21.2415 103.698 23.7971 98.6758 25.1349 93.2769C25.4531 91.9969 25.7034 90.701 25.8847 89.3945C25.9478 88.9507 25.9981 88.5036 26.0405 88.0613C26.4111 84.4157 26.225 80.7349 25.4887 77.145C25.07 77.3317 24.6593 77.5136 24.2565 77.6907C24.922 81.0806 25.0825 84.5501 24.7326 87.9868Z" fill="white"/>
<path d="M46.8636 90.0799C46.7798 90.5254 46.6832 90.9678 46.5739 91.407C46.547 91.5422 46.5122 91.6822 46.4789 91.8159C45.1009 97.3527 42.4025 102.475 38.6139 106.745C34.8252 111.015 30.0587 114.308 24.7205 116.341C25.0332 116.689 25.3459 117.037 25.6666 117.38C31.0919 115.226 35.9252 111.813 39.7661 107.422C43.6071 103.031 46.3453 97.7901 47.7537 92.1323C47.7981 91.9541 47.8424 91.7759 47.8804 91.5961C47.9849 91.149 48.0815 90.7066 48.1717 90.2627C49.5146 83.3802 48.8439 76.2571 46.2399 69.7451C45.8132 69.8555 45.3864 69.9658 44.9581 70.0825C47.5283 76.4212 48.1906 83.371 46.8636 90.0799Z" fill="white"/>
<path d="M64.9008 93.4482C64.8281 93.9032 64.7427 94.3551 64.651 94.8054C64.5513 95.2875 64.4452 95.768 64.3264 96.2454C62.466 103.683 58.2431 110.319 52.2898 115.16C46.3365 120 38.9733 122.785 31.3024 123.097C31.7475 123.512 32.1861 123.925 32.6343 124.327C40.3544 123.746 47.6949 120.751 53.613 115.767C59.5311 110.782 63.7258 104.062 65.6012 96.5618C65.72 96.0844 65.8325 95.6055 65.9242 95.1282C66.024 94.6731 66.1094 94.2212 66.1884 93.7677C67.7233 84.5932 65.7094 75.1791 60.5545 67.4316C60.0496 67.4483 59.5462 67.4855 59.0365 67.5212C64.2931 75.0733 66.3966 84.3732 64.9008 93.4482Z" fill="white"/>
<path d="M84.8876 196.304L80.7765 192.124L85.8173 184.427L94.4448 170.087C94.1629 169.469 94.0755 168.78 94.1941 168.112C94.3127 167.443 94.6318 166.826 95.1091 166.343C95.5863 165.859 96.1994 165.532 96.8671 165.404C97.5347 165.276 98.2256 165.353 98.8483 165.626C99.4709 165.898 99.9961 166.353 100.354 166.931C100.712 167.508 100.886 168.18 100.854 168.858C100.821 169.536 100.583 170.188 100.171 170.728C99.759 171.268 99.1925 171.671 98.5464 171.882L91.4251 187.192L84.8876 196.304Z" fill="#A0616A"/>
<path d="M80.3335 205.847C79.8508 206.593 79.1631 207.185 78.3524 207.552C77.5418 207.918 76.6427 208.044 75.7625 207.914C74.9246 207.815 74.1339 207.474 73.4874 206.933C72.8409 206.392 72.3667 205.674 72.1231 204.867C71.9436 204.295 71.8913 203.69 71.9699 203.095C72.0485 202.501 72.2561 201.93 72.5781 201.424C75.3283 196.794 80.4006 190.68 80.4514 190.619L80.5322 190.522L89.0873 192.373L80.3335 205.847Z" fill="#6C63FF"/>
<path d="M153.522 38.9816L152.516 39.2909L144.03 11.7676C142.728 7.54279 139.798 4.00772 135.885 1.94008C131.972 -0.127569 127.397 -0.558422 123.167 0.742305H123.166L64.7715 18.6952C62.6766 19.3393 60.7292 20.3891 59.0406 21.7846C57.352 23.1802 55.9552 24.8942 54.9299 26.8289C53.9047 28.7635 53.271 30.8808 53.0652 33.06C52.8594 35.2391 53.0855 37.4374 53.7304 39.5293V39.5294L100.285 190.524C101.587 194.749 104.517 198.284 108.43 200.352C112.343 202.419 116.918 202.85 121.149 201.549H121.149L179.544 183.596C183.774 182.296 187.315 179.37 189.385 175.463C191.456 171.556 191.887 166.987 190.585 162.762V162.762L158.557 58.8824L159.563 58.5731L153.522 38.9816Z" fill="#3F3D56"/>
<path d="M125.088 4.68876L117.465 7.03221C118.081 7.78262 118.501 8.67258 118.691 9.62368C118.881 10.5748 118.833 11.5578 118.552 12.4862C118.272 13.4147 117.767 14.2599 117.082 14.9476C116.398 15.6353 115.554 16.1442 114.626 16.4296L81.1721 26.7146C80.2439 26.9999 79.2597 27.0529 78.3062 26.8689C77.3527 26.6849 76.4592 26.2695 75.7043 25.6594C74.9494 25.0494 74.3564 24.2633 73.9774 23.3704C73.5984 22.4775 73.4452 21.5053 73.5311 20.5393L66.4117 22.7281C63.2521 23.6995 60.6084 25.8844 59.0621 28.8022C57.5158 31.7201 57.1936 35.1318 58.1663 38.2868L104.652 189.06C105.625 192.215 107.813 194.855 110.735 196.399C113.657 197.943 117.074 198.265 120.233 197.294H120.233L178.91 179.254C182.069 178.283 184.713 176.098 186.259 173.18C187.805 170.262 188.128 166.851 187.155 163.696L140.669 12.9223C139.696 9.76727 137.508 7.12732 134.586 5.58323C131.664 4.03914 128.247 3.71739 125.088 4.68876Z" fill="white"/>
<path d="M361.338 333.868L224.353 284.698C221.107 283.529 218.459 281.122 216.988 278.005C215.518 274.888 215.345 271.317 216.509 268.073L287.919 69.6976C289.09 66.4567 291.5 63.8119 294.621 62.3435C297.742 60.875 301.319 60.7027 304.567 61.8645L441.552 111.035C444.798 112.204 447.446 114.611 448.917 117.728C450.387 120.845 450.56 124.416 449.396 127.66L377.986 326.035C376.815 329.276 374.405 331.921 371.284 333.389C368.163 334.858 364.586 335.03 361.338 333.868Z" fill="#3F3D56"/>
<path d="M364.387 326.152L226.92 276.809C225.92 276.448 225.103 275.706 224.65 274.746C224.197 273.785 224.144 272.684 224.502 271.684L296.386 71.9947C296.746 70.9957 297.489 70.1804 298.452 69.7277C299.414 69.2751 300.516 69.222 301.518 69.5801L438.985 118.924C439.985 119.284 440.802 120.026 441.255 120.987C441.708 121.948 441.761 123.049 441.403 124.049L369.519 323.738C369.158 324.737 368.415 325.552 367.453 326.005C366.491 326.458 365.389 326.511 364.387 326.152Z" fill="white"/>
<path d="M371.191 91.1133C371.802 91.1133 372.298 90.6183 372.298 90.0078C372.298 89.3973 371.802 88.9023 371.191 88.9023C370.579 88.9023 370.084 89.3973 370.084 90.0078C370.084 90.6183 370.579 91.1133 371.191 91.1133Z" fill="white"/>
<path d="M143.643 120.227C155.318 108.569 155.318 89.6667 143.643 78.0084C131.968 66.35 113.039 66.35 101.364 78.0084C89.6892 89.6667 89.6892 108.569 101.364 120.227C113.039 131.885 131.968 131.885 143.643 120.227Z" fill="#6C63FF"/>
<path d="M125.634 113.364L110.836 103.34L112.129 101.439L124.379 109.739L133.233 82.0801L135.423 82.7791L125.634 113.364Z" fill="white"/>
<path d="M359.834 221.997C374.621 207.231 374.621 183.29 359.834 168.524C345.047 153.758 321.072 153.758 306.285 168.524C291.498 183.29 291.498 207.231 306.285 221.997C321.072 236.763 345.047 236.763 359.834 221.997Z" fill="#6C63FF"/>
<path d="M323.927 211.325L318.489 189.372L321.318 188.674L325.82 206.85L357.613 188.285L359.083 190.795L323.927 211.325Z" fill="white"/>
<path d="M87.2709 308.302H92.3827L94.8144 288.614L87.27 288.614L87.2709 308.302Z" fill="#A0616A"/>
<path d="M85.967 306.636L96.0337 306.636H96.0341C97.7355 306.636 99.3672 307.311 100.57 308.512C101.773 309.713 102.449 311.343 102.449 313.042V313.25L85.9673 313.251L85.967 306.636Z" fill="#2F2E41"/>
<path d="M47.4695 306.093L52.5238 306.856L57.8759 287.752L51.2501 286.626L47.4695 306.093Z" fill="#A0616A"/>
<path d="M46.4299 304.25L56.3836 305.753L56.384 305.753C58.0662 306.007 59.5785 306.918 60.5883 308.285C61.598 309.653 62.0224 311.365 61.7682 313.045L61.737 313.25L45.44 310.791L46.4299 304.25Z" fill="#2F2E41"/>
<path d="M77.0757 215.487L88.9626 212.902L95.6297 231.933L95.8382 305.419L86.1352 305.358L82.079 245.881L56.2285 300.839L45.8049 299.59L68.5284 240.676C68.5284 240.676 67.2775 230.268 71.2385 225.063L70.4046 219.651L77.0757 215.487Z" fill="#2F2E41"/>
<path d="M65.9167 201.494C65.6465 200.684 65.6177 199.812 65.834 198.986C66.0503 198.159 66.5023 197.413 67.135 196.838L69.6476 194.558L76.731 193.366L81.16 192.562L91.662 218.742L70.9892 221.093C69.4719 220.765 68.8658 219.937 69.7487 218.289L65.9167 201.494Z" fill="#6C63FF"/>
<path d="M90.9472 197.159L90.3557 191.33L99.1085 188.47L114.821 182.664C114.987 182.005 115.35 181.413 115.861 180.966C116.373 180.518 117.008 180.236 117.683 180.156C118.358 180.077 119.042 180.204 119.643 180.521C120.244 180.838 120.735 181.33 121.05 181.931C121.365 182.533 121.49 183.216 121.409 183.89C121.327 184.563 121.042 185.197 120.592 185.706C120.142 186.214 119.548 186.575 118.888 186.739C118.228 186.903 117.534 186.864 116.898 186.626L101.754 194.129L90.9472 197.159Z" fill="#A0616A"/>
<path d="M81.418 201.764C80.5739 202.045 79.6667 202.077 78.8046 201.857C77.9426 201.637 77.1622 201.174 76.5568 200.523C75.965 199.923 75.5614 199.163 75.3957 198.337C75.23 197.511 75.3092 196.655 75.6237 195.873C75.842 195.314 76.1798 194.81 76.6134 194.395C77.0471 193.98 77.5662 193.664 78.1345 193.47C83.1794 191.574 90.9663 189.969 91.0441 189.953L91.168 189.927L96.6861 196.713L81.418 201.764Z" fill="#6C63FF"/>
<path d="M73.6224 190.86C77.9167 190.86 81.3979 187.384 81.3979 183.096C81.3979 178.807 77.9167 175.331 73.6224 175.331C69.328 175.331 65.8468 178.807 65.8468 183.096C65.8468 187.384 69.328 190.86 73.6224 190.86Z" fill="#A0616A"/>
<path d="M67.3272 194.157C66.1214 194.157 64.9167 194.083 63.7198 193.937L63.5557 193.917L62.3033 187.127C61.7721 184.249 62.3643 181.277 63.9585 178.821C65.5526 176.365 68.0277 174.611 70.8758 173.92C71.0658 173.872 71.2655 173.877 71.4527 173.935C71.64 173.993 71.8077 174.102 71.9373 174.248L72.236 174.144C73.3796 173.746 74.5906 173.577 75.7998 173.646C77.009 173.715 78.1927 174.021 79.2834 174.547C80.374 175.073 81.3503 175.808 82.1564 176.711C82.9625 177.614 83.5826 178.666 83.9813 179.808L84.0554 180.02L82.062 180.714C81.4409 180.931 80.8759 181.283 80.4081 181.744C79.9402 182.206 79.5814 182.766 79.3576 183.384C79.1338 184.001 79.0506 184.661 79.1143 185.315C79.1779 185.969 79.3866 186.6 79.7253 187.163L81.7634 190.551L81.5464 190.66C77.1475 192.925 72.2762 194.123 67.3272 194.157Z" fill="#2F2E41"/>
<path d="M171.864 313.986H0.449905C0.330583 313.986 0.216148 313.939 0.131774 313.854C0.0474003 313.77 0 313.656 0 313.537C0 313.418 0.0474003 313.303 0.131774 313.219C0.216148 313.135 0.330583 313.087 0.449905 313.087H171.864C171.983 313.087 172.098 313.135 172.182 313.219C172.266 313.303 172.314 313.418 172.314 313.537C172.314 313.656 172.266 313.77 172.182 313.854C172.098 313.939 171.983 313.986 171.864 313.986Z" fill="#CACACA"/>
<path d="M475.55 336H304.136C304.017 336 303.902 335.953 303.818 335.868C303.734 335.784 303.686 335.67 303.686 335.551C303.686 335.432 303.734 335.317 303.818 335.233C303.902 335.149 304.017 335.102 304.136 335.102H475.55C475.669 335.102 475.784 335.149 475.868 335.233C475.953 335.317 476 335.432 476 335.551C476 335.67 475.953 335.784 475.868 335.868C475.784 335.953 475.669 336 475.55 336Z" fill="#CACACA"/>
<path d="M382.451 257.59C382.831 257.272 383.137 256.875 383.347 256.426C383.556 255.977 383.665 255.488 383.665 254.993C383.665 254.498 383.556 254.009 383.346 253.561C383.136 253.112 382.831 252.715 382.45 252.397L379.929 208.09L372.736 209.714L377.491 252.986C376.999 253.659 376.771 254.489 376.851 255.319C376.93 256.149 377.312 256.92 377.923 257.488C378.535 258.055 379.333 258.379 380.168 258.398C381.002 258.417 381.815 258.129 382.451 257.59H382.451Z" fill="#9F616A"/>
<path d="M411.66 263.36C411.269 263.056 410.949 262.67 410.723 262.229C410.497 261.788 410.371 261.303 410.353 260.809C410.335 260.314 410.426 259.821 410.62 259.365C410.813 258.91 411.104 258.502 411.473 258.17L412.386 213.801L419.633 215.164L416.45 258.579C416.966 259.234 417.224 260.055 417.175 260.888C417.125 261.72 416.772 262.505 416.181 263.094C415.591 263.683 414.805 264.036 413.971 264.085C413.138 264.134 412.316 263.876 411.66 263.36Z" fill="#9F616A"/>
<path d="M415.495 329.301L421.139 329.301L422.749 316.153L415.495 316.154L415.495 329.301Z" fill="#9F616A"/>
<path d="M414.056 327.461L425.17 327.46H425.171C427.049 327.461 428.851 328.206 430.179 329.532C431.507 330.859 432.254 332.658 432.254 334.533V334.763L414.056 334.764L414.056 327.461Z" fill="#2F2E41"/>
<path d="M380.278 329.301L385.922 329.301L387.531 307.563H380.277L380.278 329.301Z" fill="#9F616A"/>
<path d="M378.839 327.461L389.953 327.46H389.954C391.832 327.461 393.634 328.206 394.962 329.532C396.29 330.859 397.037 332.658 397.037 334.533V334.763L378.839 334.764L378.839 327.461Z" fill="#2F2E41"/>
<path d="M403.013 188.975C408.112 188.975 412.246 184.847 412.246 179.755C412.246 174.663 408.112 170.535 403.013 170.535C397.913 170.535 393.78 174.663 393.78 179.755C393.78 184.847 397.913 188.975 403.013 188.975Z" fill="#9F616A"/>
<path d="M414.748 201.031C414.748 201.031 418.852 201.372 419.194 203.421C419.535 205.47 419.194 211.617 419.194 211.617C419.194 211.617 421.929 219.812 419.194 221.861C416.458 223.91 409.276 224.252 409.276 224.252L414.748 201.031Z" fill="#E4E4E4"/>
<path d="M379.867 247.473L376.105 253.619C376.105 253.619 377.473 280.597 377.815 281.28C378.086 281.681 378.207 282.164 378.157 282.646V286.402L379.183 319.185C379.183 319.185 376.447 320.551 379.867 321.575C383.286 322.6 387.732 322.941 388.416 319.526C389.1 316.111 389.132 287.663 389.1 286.744L389.442 285.378L394.913 265.23L407.566 293.232L415.09 324.649C415.09 324.649 426.476 325.962 424.424 321.522C422.372 317.083 417.484 284.012 417.484 284.012C417.484 284.012 416.458 280.597 416.458 279.914C416.458 279.231 416.116 278.889 416.116 278.206C416.116 277.523 415.774 275.474 415.774 275.474L413.38 253.961L379.867 247.473Z" fill="#2F2E41"/>
<path d="M383.286 195.225C383.286 195.225 379.183 194.884 378.157 198.299C377.131 201.714 368.581 214.69 370.291 216.056C372.001 217.422 384.996 222.203 385.338 221.861C385.68 221.52 383.286 195.225 383.286 195.225Z" fill="#E4E4E4"/>
<path d="M413.765 173.875C413.378 172.435 412.831 170.995 411.719 170C410.591 168.999 409.145 168.43 407.637 168.395C405.916 167.399 403.985 166.821 401.999 166.709C400.013 166.596 398.029 166.952 396.207 167.747C396.009 167.35 395.691 167.025 395.296 166.821C395.186 167.769 395.077 168.717 394.967 169.665C394.543 169.347 394.118 169.028 393.694 168.709C393.673 169.27 393.652 169.832 393.631 170.393C393.243 170.059 392.854 169.725 392.465 169.391C392.382 171.379 394.039 173.1 395.912 173.777C397.784 174.455 399.838 174.33 401.828 174.236C402.81 174.189 403.929 174.206 404.593 174.932C405.287 175.692 405.156 176.857 405.173 177.886C405.197 179.333 406.685 178.624 407.431 179.865C407.752 180.276 407.953 180.768 408.01 181.286C407.94 181.756 407.769 182.206 407.509 182.604C406.96 183.737 405.868 187.262 406.389 188.408C407.354 187.868 408.319 187.329 409.284 186.79C409.284 186.79 415.641 180.848 413.765 173.875Z" fill="#2F2E41"/>
<path d="M412.012 220.837C412.012 220.837 418.851 203.421 418.51 202.055C418.168 200.689 409.635 195.085 409.635 195.085C409.31 195.044 409.002 195.005 408.69 194.966C408.737 194.846 408.768 194.72 408.784 194.592L408.931 193.255C408.976 192.84 408.855 192.424 408.593 192.099C408.332 191.773 407.951 191.565 407.536 191.519L396.693 190.332C396.277 190.287 395.861 190.408 395.535 190.669C395.209 190.93 395 191.31 394.954 191.725L394.827 192.881C394.255 192.74 394.229 192.684 394.229 192.684C394.229 192.684 384.654 194.201 382.26 194.884C379.867 195.567 381.918 221.52 381.918 221.52C381.918 221.52 380.209 245.424 379.183 246.107C378.157 246.79 379.183 246.448 378.157 249.18C378.021 249.541 379.911 247.529 380.722 247.985C386.057 250.989 407.694 258.014 413.038 257.717C414.746 239.914 411.328 234.155 411.328 234.155L412.012 220.837Z" fill="#E4E4E4"/>
</svg>
